<?xml version="1.0" encoding="utf-8"?>
<!-- Generator: Adobe Illustrator 27.7.0, SVG Export Plug-In . SVG Version: 6.00 Build 0)  -->
<svg version="1.1" id="Layer_1" xmlns="http://www.w3.org/2000/svg" xmlns:xlink="http://www.w3.org/1999/xlink" x="0px" y="0px"
	 viewBox="0 0 122.4 122.4" style="enable-background:new 0 0 122.4 122.4;" xml:space="preserve">
<style type="text/css">
	.st0{fill:#F68721;}
</style>
<g id="Layer_1_00000105385983665444810060000007569836862912900507_">
	<path class="st0" d="M89.63,95.52V82.58h11.83V51.81H91.02v-9.94c6.26-1.31,10.26-3,14.43-5.81h10.96v46.52h2.93
		c1.99-6.59,3.06-13.91,3.06-21.92C122.4,21.97,97.68,0,61.2,0S0,21.79,0,60.65s24.72,61.75,61.2,61.75
		c23.6,0,42.26-9.59,52.51-26.88H89.63z M61.2,95.52c-15.81,0-25.53-13.44-25.53-34.87s9.72-33.77,25.53-33.77
		s25.53,12.35,25.53,33.77S77,95.52,61.2,95.52z"/>
</g>
<g id="Layer_2_00000145780457901739713210000008186757500908551350_">
</g>
</svg>
